<?xml version="1.0" standalone="no"?><!DOCTYPE svg PUBLIC "-//W3C//DTD SVG 1.1//EN" "http://www.w3.org/Graphics/SVG/1.1/DTD/svg11.dtd"><svg width="200" height="200" viewBox="0 0 200 200" version="1.1" xmlns="http://www.w3.org/2000/svg" xmlns:xlink="http://www.w3.org/1999/xlink"><defs><style type="text/css"><![CDATA[

]]></style></defs><g class="transform-group"><g transform="scale(0.1953125, 0.1953125)"><path d="M512 10.64215c-276.491256 0-501.409014 224.917758-501.409014 501.409014s224.917758 501.409014 501.409014 501.409014 501.409014-224.917758 501.409014-501.409014S788.491256 10.64215 512 10.64215zM814.994304 351.907265 448.658739 718.345158c-3.888478 3.888478-8.697911 5.525732-13.712002 5.525732-5.01409 0-9.925852-1.944239-13.712002-5.525732L209.005696 506.218447c-7.469971-7.469971-7.469971-19.749375 0-27.219346 7.469971-7.469971 19.749375-7.469971 27.219346 0l198.41471 198.41471 352.623564-352.623564c7.981613-7.469971 20.056361-7.469971 27.730988 0C822.464275 332.157889 822.464275 344.437294 814.994304 351.907265z" fill="#89ca55"></path></g></g></svg>