<?xml version="1.0" standalone="no"?><!DOCTYPE svg PUBLIC "-//W3C//DTD SVG 1.1//EN" "http://www.w3.org/Graphics/SVG/1.1/DTD/svg11.dtd"><svg width="200" height="200" viewBox="0 0 200 200" version="1.1" xmlns="http://www.w3.org/2000/svg" xmlns:xlink="http://www.w3.org/1999/xlink"><defs><style type="text/css"><![CDATA[

]]></style></defs><g class="transform-group"><g transform="scale(0.1953125, 0.1953125)"><path d="M925.304287 414.839213 606.244429 414.839213 606.244429 95.677026c0-17.60048-14.223643-31.926451-31.926451-31.926451L446.7145 63.750575c-17.60048 0-31.926451 14.223643-31.926451 31.926451l0 319.059858L95.72819 414.736884c-17.60048 0-31.926451 14.223643-31.926451 31.926451l0 127.603478c0 17.60048 14.223643 31.926451 31.926451 31.926451l319.059858 0 0 319.059858c0 17.60048 14.223643 31.926451 31.926451 31.926451l127.603478 0c17.60048 0 31.926451-14.325972 31.926451-31.926451L606.244429 606.193265l319.059858 0c17.60048 0 31.926451-14.223643 31.926451-31.926451L957.230738 446.663336C957.230738 429.062856 943.007095 414.839213 925.304287 414.839213L925.304287 414.839213z" fill="#f1f1f1"></path></g></g></svg>