<?xml version="1.0" standalone="no"?><!DOCTYPE svg PUBLIC "-//W3C//DTD SVG 1.1//EN" "http://www.w3.org/Graphics/SVG/1.1/DTD/svg11.dtd"><svg width="200" height="200" viewBox="0 0 200 200" version="1.1" xmlns="http://www.w3.org/2000/svg" xmlns:xlink="http://www.w3.org/1999/xlink"><defs><style type="text/css"><![CDATA[

]]></style></defs><g class="transform-group"><g transform="scale(0.1953125, 0.1953125)"><path d="M1008 313.6c-16-16-43.2-16-59.2 0L518.4 748.8 80 316.8c-16-16-43.2-16-59.2 0-16 16-16 43.2 0 59.2l464 460.8c0 0 1.6 1.6 1.6 1.6 0 0 0 0 0 0 8 8 19.2 12.8 28.8 12.8 11.2 0 22.4-4.8 30.4-12.8l460.8-464C1025.6 356.8 1025.6 331.2 1008 313.6L1008 313.6zM1008 313.6" fill="#666666"></path></g></g></svg>